<?xml version="1.0" standalone="no"?><!DOCTYPE svg PUBLIC "-//W3C//DTD SVG 1.1//EN" "http://www.w3.org/Graphics/SVG/1.1/DTD/svg11.dtd"><svg t="1516105445265" class="icon" style="" viewBox="0 0 1024 1024" version="1.1" xmlns="http://www.w3.org/2000/svg" p-id="2282" xmlns:xlink="http://www.w3.org/1999/xlink" width="1024" height="1024"><defs><style type="text/css"></style></defs><path d="M925.789 176.961l-827.578 0c-20.039 0-36.211 17.842-36.211 39.903l0 87.715 900 0 0-87.715c0-22.06-16.172-39.903-36.211-39.903zM444.94 560.164l68.818 0 0-72.685-68.818 0 0 72.685zM175.555 725.926l339.434 0 0-72.685-339.434 0 0 72.685zM400.203 487.479l-224.648 0 0 72.685 224.737 0-0.088-72.685zM962 368.914l0 439.893c0 21.094-16.172 38.232-36.211 38.232l-827.578 0c-20.039 0-36.211-17.138-36.211-38.232l0-439.893 900 0z" p-id="2283" fill="#09BB07"></path></svg>